# xmcd
#
# Track frame offsets:
#	150
#	12530
#	25308
#	38557
#	52070
#	64099
#	75536
#	87307
#	98663
#	110509
#	125359
#	135906
#	146935
#	158995
#	171672
#	184171
#	195870
#	208547
#	220372
#	231457
#	244712
#	257710
#	266384
#	274230
#	285025
#
# Disc length: 3936 seconds
#
# Revision: 0
# Processed by: cddbd v1.5.2PL0 Copyright (c) Steve Scherf et al.
# Submitted via: EasyCDDAExtractor 9.1.3.1
#
DISCID=690f5e19
DTITLE=Various Artist - Old Town Records Presents City Blues
DYEAR=2000
DGENRE=Oldies
TTITLE0=Hal Paige and The Wailers - Rock This Joint This Morning
TTITLE1=Hal Paige and The Wailers - Guitar Shuffle
TTITLE2=Hal Paige and The Wailers - My Angel Chile
TTITLE3=Hal Paige and The Wailers - Guitar Blues
TTITLE4=Buddy and Ella Johnson - I Got To Talk To Somebody
TTITLE5=Buddy and Ella Johnson - Like You Do
TTITLE6=Buddy and Ella Johnson - Don't Be Messin' With My Man
TTITLE7=Buddy and Ella Johnson - Keep ON Loving You
TTITLE8=Ursula Reed - Have A Good Time Baby
TTITLE9=Ursula Reed - You're Laughin' Cause I'm Cryin'
TTITLE10=Ursula Reed - Fool About The Man I Love
TTITLE11=Ursula Reed - Ursula's Blues
TTITLE12=Guitar Crusher - What About Me
TTITLE13=Herman Dunham - Fine Little Thing
TTITLE14=Bob Gaddy - The Girl Who Promises
TTITLE15=Bob Gaddy - Early One Morning
TTITLE16=Bob Gaddy - Woe Woe Is Me
TTITLE17=Bob Gaddy - Operator
TTITLE18=Bob Gaddy - You Are The One
TTITLE19=Wild Bill Moore - Big Bubbles
TTITLE20=Wild Bill Moore - Slow Drag
TTITLE21=Vicki Evans - It Was Just For Laughs
TTITLE22=Lester Young - Down To The River
TTITLE23=Larry Dale - Big Muddy
TTITLE24=Larry Dale - What Your Love Means To Me
EXTD=
EXTT0=
EXTT1=
EXTT2=
EXTT3=
EXTT4=
EXTT5=
EXTT6=
EXTT7=
EXTT8=
EXTT9=
EXTT10=
EXTT11=
EXTT12=
EXTT13=
EXTT14=
EXTT15=
EXTT16=
EXTT17=
EXTT18=
EXTT19=
EXTT20=
EXTT21=
EXTT22=
EXTT23=
EXTT24=
PLAYORDER=
